<svg xmlns="http://www.w3.org/2000/svg" version="1.1" xmlns:xlink="http://www.w3.org/1999/xlink" xmlns:svgjs="http://svgjs.dev/svgjs" width="1000" height="1000" viewBox="0 0 1000 1000" sodipodi:docname="logo1.svg"><rect width="1000" height="1000" fill="#77d4fc"></rect><g transform="matrix(0.7,0,0,0.7,149.57605563665675,397.7526694368685)"><svg viewBox="0 0 396 116" data-background-color="#77d4fc" preserveAspectRatio="xMidYMid meet" height="292" width="1000" xmlns="http://www.w3.org/2000/svg" xmlns:xlink="http://www.w3.org/1999/xlink"><g id="tight-bounds" transform="matrix(1,0,0,1,0.24008861730862918,0.02686078925273705)"><svg viewBox="0 0 395.52 115.94627842149453" height="115.94627842149453" width="395.52"><g><svg viewBox="0 0 395.52 115.94627842149453" height="115.94627842149453" width="395.52"><g><svg viewBox="0 0 395.52 115.94627842149453" height="115.94627842149453" width="395.52"><g id="textblocktransform"><svg viewBox="0 0 395.52 115.94627842149453" height="115.94627842149453" width="395.52" id="textblock"><g><svg viewBox="0 0 395.52 115.94627842149453" height="115.94627842149453" width="395.52"><path d="M394.594 24.868C392.735 12.833 387.435 9.487 387.435 9.487 371.165-2.909 350.86-0.237 332.619 1.544 300.414 1.616 268.339 4.264 236.208 5.684 168.767 5.901 100.749 2.338 33.643 11.124 27.339 13.82-6.54 11.654 1.121 26.409 3.129 32.547 10.456 39.359 10.232 44.991 11.236 45.978 12.631 43.715 13.226 45.136 15.309 48.963 18.711 47.157 21.501 49.42 17.614 55.462 20.403 60.492 23.062 65.764 18.377 67.136 12.371 66.486 9.675 71.035 9.396 74.333 7.89 73.707 6.235 73.563 5.026 73.466 2.59 73.827 2.999 74.862 4.394 78.401-1.594 80.447 2.162 83.913-0.422 87.668 3.948 90.917 3.353 94.985 3.278 95.804 3.687 96.502 4.338 96.694 7.22 97.729 3.018 99.751 3.464 101.942 33.029 116.913 65.104 106.563 95.394 113.447 103.259 108.633 97.346 115.156 100.489 114.145 102.943 112.966 104.728 117.852 107.499 115.084 107.927 114.29 107.276 112.412 108.8 112.773 109.6 112.966 110.307 112.918 110.418 111.81 110.586 110.15 109.117 111.185 108.726 110.318 112.947 105.937 111.906 116.36 115.866 115.926 115.68 114.651 114.528 112.821 116.889 113.062 119.232 111.233 119.306 109.716 121.389 113.832 121.463 114.723 121.835 115.349 122.43 115.782 128.938 111.305 135.409 117.371 142.233 115.349 146.417 113.134 150.433 116.552 154.672 115.71 156.16 115.036 157.666 113.832 159.098 115.854 176.632 116.288 195.319 114.482 211.943 115.926 256.364 113.231 303.835 117.034 350.674 113.471 361.719 112.099 373.192 110.15 383.958 108.585 383.958 108.585 392.679 104.3 392.679 85.044S394.538 68.195 394.817 52.862C395.096 37.529 396.398 36.903 394.538 24.868Z" opacity="1" fill="#000000" data-fill-palette-color="tertiary"></path><g transform="matrix(1,0,0,1,55.76832,26.230666666666668)"><svg width="283.98335999999995" viewBox="1.9000000953674316 -34.900001525878906 158.79000854492188 35.5" height="63.48494508816119" data-palette-color="#77d4fc"><path d="M13.5 0.6Q8.4 0.6 5.15-1.98 1.9-4.55 1.9-9.8L1.9-9.8 1.95-10.85 7.15-10.85 7.1-9.85Q7.1-7 8.85-5.45 10.6-3.9 13.5-3.9L13.5-3.9Q16.7-3.9 18.38-5.28 20.05-6.65 20.05-9.1L20.05-9.1Q20.05-10.9 19.07-12.05 18.1-13.2 16.63-13.88 15.15-14.55 12.6-15.35L12.6-15.35Q9.4-16.4 7.4-17.4 5.4-18.4 4-20.38 2.6-22.35 2.6-25.55L2.6-25.55Q2.6-30.1 5.73-32.5 8.85-34.9 13.65-34.9L13.65-34.9Q18.45-34.9 21.5-32.45 24.55-30 24.55-25.1L24.55-25.1 24.55-24.5 19.35-24.5 19.35-25.15Q19.35-27.6 17.78-29 16.2-30.4 13.7-30.4L13.7-30.4Q11.05-30.4 9.45-29.25 7.85-28.1 7.85-25.95L7.85-25.95Q7.85-24.35 8.8-23.28 9.75-22.2 11.2-21.55 12.65-20.9 15.1-20.15L15.1-20.15Q18.35-19.1 20.38-18.1 22.4-17.1 23.85-15.15 25.3-13.2 25.3-10.05L25.3-10.05Q25.3-4.5 22.13-1.95 18.95 0.6 13.5 0.6L13.5 0.6ZM37.35 0L37.35-29.75 28.25-29.75 28.25-34.3 51.45-34.3 51.45-29.75 42.4-29.75 42.4 0 37.35 0ZM55.75 0L55.75-34.3 77.09-34.3 77.09-29.75 60.75-29.75 60.75-19.8 74.9-19.8 74.9-15.3 60.75-15.3 60.75-4.55 77.4-4.55 77.4 0 55.75 0ZM90.44 0L79.99-34.3 85.44-34.3 93.49-6.4 93.69-6.4 101.94-34.3 106.84-34.3 96.39 0 90.44 0ZM110.44 0L110.44-34.3 131.79-34.3 131.79-29.75 115.44-29.75 115.44-19.8 129.59-19.8 129.59-15.3 115.44-15.3 115.44-4.55 132.09-4.55 132.09 0 110.44 0ZM137.79 0L137.79-34.3 142.19-34.3 154.24-13.6Q154.89-12.5 156.14-9.45L156.14-9.45 156.29-9.5 156.19-13.5 156.19-34.3 160.69-34.3 160.69 0 156.39 0 144.24-20.9Q143.59-22.1 142.29-25.1L142.29-25.1 142.09-25Q142.29-22.15 142.29-21L142.29-21 142.29 0 137.79 0Z" opacity="1" transform="matrix(1,0,0,1,0,0)" fill="#77d4fc" class="wordmark-text-0" data-fill-palette-color="quaternary" id="text-0"></path></svg></g></svg></g></svg></g></svg></g><g></g></svg></g><defs></defs></svg><rect width="395.52" height="115.94627842149453" fill="none" stroke="none" visibility="hidden"></rect></g></svg></g></svg>